<?xml version="1.0" encoding="UTF-8" standalone="no"?>
<!-- Created with Inkscape (http://www.inkscape.org/) -->

<svg
   width="3840"
   height="2160"
   viewBox="0 0 3840 2160"
   version="1.1"
   id="svg5"
   xml:space="preserve"
   xmlns:inkscape="http://www.inkscape.org/namespaces/inkscape"
   xmlns:sodipodi="http://sodipodi.sourceforge.net/DTD/sodipodi-0.dtd"
   xmlns="http://www.w3.org/2000/svg"
   xmlns:svg="http://www.w3.org/2000/svg"><sodipodi:namedview
     id="namedview7"
     pagecolor="#ffffff"
     bordercolor="#000000"
     borderopacity="0.25"
     inkscape:showpageshadow="2"
     inkscape:pageopacity="0.0"
     inkscape:pagecheckerboard="0"
     inkscape:deskcolor="#d1d1d1"
     inkscape:document-units="px"
     showgrid="false" /><defs
     id="defs2"><linearGradient
       id="linearGradient18994"
       inkscape:swatch="solid"><stop
         style="stop-color:#edff00;stop-opacity:1;"
         offset="0"
         id="stop18992" /></linearGradient></defs><g
     id="layer2"
     inkscape:label="Flat Illustration"
     style="display:inline;opacity:1"
     inkscape:groupmode="layer"><path
       style="display:inline;opacity:1;mix-blend-mode:normal;fill:#ffb2a8;fill-opacity:1"
       d="m 1484.6148,1068.6391 41.9171,164.2323 c 0,0 62.3645,40.8556 72.4371,46.8223 17.4909,10.3611 -3.5135,212.4283 5.2808,212.4283 8.7943,0 -15.0376,48.2749 102.2356,20.4918 10.1189,46.1304 -57.5641,39.53 168.6609,150.1599 132.8691,-238.7188 79.7794,-653.238 19.6566,-604.6981 -121.984,98.4834 -159.2892,-186.89325 -159.2892,-186.89325 -129.3647,42.29326 -250.8989,197.45675 -250.8989,197.45675 z"
       id="path435"
       sodipodi:nodetypes="ccssccscc"
       inkscape:label="Face" /><g
       id="g453"
       inkscape:label="Hair"
       style="fill:#000000;fill-opacity:1"
       transform="translate(-93.837219,205.28734)"><path
         style="opacity:1;fill:#000000;fill-opacity:1"
         d="m 1966.0124,1475.0738 c 0,0 -50.8957,105.5124 28.7968,141.316 98.8121,57.5412 213.3441,57.2174 382.0693,-250.2886 -106.5677,-34.0003 -246.9641,-524.126 -204.4879,-525.50718 -43.5975,12.01174 -207.1142,-2.95176 -161.1097,5.50985 -0.095,24.87621 83.7474,259.93193 -57.3064,632.49163 30.9536,66.6311 95.6784,-20.796 95.6784,-20.796 l 18.5419,65.5022 c 0,0 -9.9836,-74.1551 -29.1499,-81.9314 -19.1663,-7.7763 -73.0325,33.7035 -73.0325,33.7035 z"
         id="path441"
         sodipodi:nodetypes="ccccccccsc"
         inkscape:label="Beard" /><path
         style="display:inline;opacity:1;fill:#000000;fill-opacity:1"
         d="m 1654.4056,1116.6978 c 5.0571,1.0123 153.1572,-51.9909 128.5336,-270.6868 -33.4186,-296.80822 112.8404,-296.53888 112.8404,-296.53888 l 304.0087,-68.40975 c 0,0 451.8378,-81.12235 496.3086,27.31647 -2.5731,35.03882 -3.2144,387.95391 -3.2144,387.95391 l 1.5966,80.60221 c 0,0 -44.3861,36.61304 -40.0648,53.00194 C 2601.0244,985.7872 2512.667,883.97083 2512.667,883.97083 l 15.2027,-50.70973 c 0,0 -49.6893,-107.52969 -42.4082,-115.34808 48.0863,-51.63488 -60.2003,-245.22071 -273.0081,-71.46316 -37.9866,40.0915 -14.77,82.50198 -14.77,82.50198 l -33.9329,77.83727 c 0,0 -9.1912,37.2463 7.2156,35.27963 16.4067,-1.96666 -119.0434,16.97241 -119.0434,16.97241 0,0 -49.4257,-73.51079 -115.2132,154.12335 -9.0797,-61.23433 -54.041,-93.84268 -56.302,-67.64719 -2.261,26.19549 -226.0019,171.18049 -226.0019,171.18049 z"
         id="path437"
         sodipodi:nodetypes="csccccccccscccsccsc"
         inkscape:label="Head Hair" /><path
         style="display:inline;opacity:1;fill:#000000;fill-opacity:1"
         d="m 1684.9269,1088.4375 c 0,0 50.7364,-92.3487 4.9679,-192.3634 -21.2097,48.09196 -26.4229,76.77143 -24.4117,17.95867 -8.7942,14.33305 -8.0896,41.75046 -16.2417,-23.72935 -4.464,79.58988 -19.6845,147.93278 -8.5401,-9.71294 -22.7616,26.69943 -65.1097,59.40589 -65.1097,59.40589 l 54.9241,-83.3939 18.4581,-34.41893 -35.186,33.2639 27.0473,-37.42914 26.967,-31.20359 170.9218,-186.31177 -94.4626,165.111 -4.6869,221.88578 z"
         id="path439"
         inkscape:label="Hair Folicles"
         sodipodi:nodetypes="ccccccccccccccc" /></g><path
       style="opacity:1;fill:#ffb2a8;fill-opacity:1"
       d="m 2218.7513,1659.8285 c 0,0 57.8651,87.3024 72.6481,86.6718 22.1495,14.9849 136.9013,52.3904 170.7309,115.5338 16.3093,42.8294 91.4924,96.6704 85.8983,96.3487 -5.5941,-0.3216 52.2517,-50.7443 52.2517,-50.7443 l -45.2322,-680.8169 -132.7514,-137.9828 15.852,-70.6833 c 0,0 -14.0222,-94.62263 -17.3215,-95.50667 -5.9535,-1.59524 1.1446,-29.64817 -30.4082,-94.24221 -14.7673,-16.78234 -110.6746,-108.35065 -273.6669,17.23328 -8.6119,9.22051 -30.4964,46.87829 -18.4284,90.9343 -7.0983,18.08784 -44.9516,93.5516 -27.4408,114.1243 -3.3804,9.7881 -0.7316,254.8759 199.6853,530.1983 -10.8603,16.6878 -51.8169,78.9317 -51.8169,78.9317 z"
       id="path443"
       inkscape:label="Neck"
       sodipodi:nodetypes="cccsccccscccccc" /><path
       style="opacity:1;fill:#00004c;fill-opacity:1"
       d="m 1065.2755,1169.0175 c 0,0 -41.0191,87.5145 131.5929,88.9951 172.612,1.4806 569.6026,-487.47519 569.6026,-487.47519 0,0 669.9161,-194.33008 818.2591,-50.23256 -6.8855,-58.75925 -42.8475,-295.34818 -42.8475,-295.34818 0,0 -327.3189,-496.567064 -1031.8615,-4.47502 -52.061,120.34586 -86.4551,247.13788 -107.0048,496.63279 -56.8416,57.21624 -332.4517,264.33636 -337.7408,251.90306 z"
       id="path449"
       sodipodi:nodetypes="cscccccc"
       inkscape:label="Cap" /><g
       id="g462"
       inkscape:label="Glasses"
       style="fill:#000000;fill-opacity:1"
       transform="translate(-93.837219,205.28734)"><path
         style="opacity:1;fill:#000000;fill-opacity:1"
         d="m 1536.4639,1004.8466 c 0,0 87.4278,151.1388 209.2968,240.6005 10.8414,-9.3845 19.1348,-76.1779 -22.3638,-99.185 -7.6911,-3.352 -46.4271,-19.2713 -62.6419,-9.7764 11.5446,16.2652 95.0622,92.1996 95.0622,92.1996 l 0.679,0.017 c 0,0 -194.8853,-186.1223 -179.2367,-200.4777 15.5371,-14.3553 243.9829,-138.78168 243.9829,-138.78168 L 2180.621,683.10749 c 0,0 36.7915,-34.94516 36.7915,-16.77689 0,18.16828 -680.9486,338.516 -680.9486,338.516 z"
         id="path447"
         inkscape:label="Frame"
         sodipodi:nodetypes="cccccccccsc" /><path
         style="opacity:1;fill:#000000;fill-opacity:1"
         d="m 2513.6805,683.87564 c 0,0 139.5312,11.74953 71.2603,48.13335 -72.5911,-20.79346 -71.2603,-48.13335 -71.2603,-48.13335 z"
         id="path458"
         sodipodi:nodetypes="ccc"
         inkscape:label="Handle" /></g></g></svg>
